# xmcd
#
# Track frame offsets:
#	150
#	11135
#	20265
#	29615
#	40000
#	50622
#	60677
#	70307
#	81267
#	89255
#	100830
#	111570
#	122812
#	134265
#	144562
#	154332
#	164052
#	175522
#	185432
#	196792
#
# Disc length: 2842 seconds
#
# Revision: 4
# Processed by: cddbd v1.5.2PL0 Copyright (c) Steve Scherf et al.
# Submitted via: EZCDAudioConverter 1.3.4.1
#
DISCID=1a0b1814
DTITLE=The Byrds - Preflyte Sessions 2/2
DYEAR=2001
DGENRE=
TTITLE0=The Jet Set - The Only Girl I Adore
TTITLE1=The Byrds - Tomorrow Is A Long Ways Away [Acoustic]
TTITLE2=The Byrds - You Showed Me [Acoustic]
TTITLE3=The Byrds - I Knew I'd Want You [Acoustic]
TTITLE4=The Byrds - You Won't Have To Cry [Acoustic]
TTITLE5=The Byrds - Mr. Tambourine Man [Acoustic]
TTITLE6=David Crosby - Willie Jean
TTITLE7=David Crosby - Come Back Baby
TTITLE8=David Crosby - Jack Of Diamonds
TTITLE9=David Crosby - Get Together
TTITLE10=The Byrds - She Has A Way [Version 1]
TTITLE11=The Byrds - Here Without You [Version 1]
TTITLE12=The Byrds - For Me Again [Version 1]
TTITLE13=The Byrds - It's No Use [Version 1]
TTITLE14=The Byrds - You Movin' [Version 1]
TTITLE15=The Byrds - Boston [Version 1]
TTITLE16=The Byrds - She Has A Way [Version 2]
TTITLE17=The Byrds - You Movin' [Version 2]
TTITLE18=The Byrds - The Reason Why [Version 1]
TTITLE19=The Byrds - It's No Use [Version 3]
EXTD=
EXTT0=
EXTT1=
EXTT2=
EXTT3=
EXTT4=
EXTT5=
EXTT6=
EXTT7=
EXTT8=
EXTT9=
EXTT10=
EXTT11=
EXTT12=
EXTT13=
EXTT14=
EXTT15=
EXTT16=
EXTT17=
EXTT18=
EXTT19=
PLAYORDER=
